<?xml version="1.0" encoding="utf-8"?>
<!-- Generator: Adobe Illustrator 19.1.0, SVG Export Plug-In . SVG Version: 6.00 Build 0)  -->
<svg version="1.1" id="Layer_1" xmlns="http://www.w3.org/2000/svg" xmlns:xlink="http://www.w3.org/1999/xlink" x="0px" y="0px"
	 viewBox="0 0 1200 1200" enable-background="new 0 0 1200 1200" xml:space="preserve">
<g>
	<polygon fill="#4A4D4E" points="576.95,1030.722 620.918,1030.722 624.339,1001.646 573.095,1001.646 	"/>
	<path fill="#627B89" d="M634.326,983.784h-71.326c-0.075,0.384-0.119,0.78-0.119,1.186v10.472c0,3.427,2.778,6.205,6.205,6.205
		h4.008h51.244h3.902c3.427,0,6.205-2.778,6.205-6.205v-10.472C634.446,984.563,634.401,984.168,634.326,983.784z"/>
	<polygon fill="#E3DED0" points="972.031,856.678 972.031,754.935 749.063,601.238 710.798,531.905 710.798,926.814 	"/>
	<polygon fill="#E3DED0" points="450.938,601.238 227.969,754.935 227.969,856.678 489.202,926.814 489.202,531.905 	"/>
	<path fill="#CBCCCE" d="M680.658,922.966l-3.032-14.334l16.481,10.987l8.414-402.712l8.277,14.997v-173.95
		c0-3.255-3.641-5.184-6.334-3.355l-36.219,24.59l-7.301-22.464c-4.205-12.94-6.019-26.432-7.499-39.958
		c-7.57-69.172-15.616-105.469-20.63-123.06c5.332,201.799,8.139,729.99,8.421,785.336l9.332,0.635v-81.87L680.658,922.966z"/>
	<polygon fill="#CBCCCE" points="706.593,927.943 710.798,930.746 710.798,926.814 	"/>
	<polygon fill="#CBCCCE" points="694.107,919.619 706.593,927.943 710.798,926.814 710.798,531.905 702.521,516.907 	"/>
	<path fill="#CBCCCE" d="M546.557,316.767c-1.48,13.525-3.294,27.018-7.5,39.958l-7.301,22.464l-36.219-24.59
		c-2.693-1.828-6.334,0.101-6.334,3.355v173.95l8.277-14.997l8.414,402.712l16.481-10.987l-3.032,14.334l30.091-25.158v81.87
		l7.806-0.531l8.53-780.255C560.734,218.064,553.448,253.792,546.557,316.767z"/>
	<polygon fill="#CBCCCE" points="489.202,926.814 489.202,930.746 493.407,927.943 	"/>
	<polygon fill="#CBCCCE" points="505.893,919.619 497.48,516.907 489.202,531.905 489.202,926.814 493.407,927.943 	"/>
	<g>
		<path fill="#BBBBA7" d="M641.235,979.042c-0.282-55.346-3.089-583.537-8.421-785.336c-1.14-43.154-2.396-71.403-3.767-76.882
			c-1.244-5.032-2.883-10.148-4.721-15.208H571.69c-3.788,11.505-5.06,18.516-5.06,18.516l-0.861,78.76l-8.53,780.255l-0.051,4.637
			h5.812h71.326h6.932C641.258,983.784,641.251,982.135,641.235,979.042z M599.512,164.13c11.632,0,21.061,46.132,21.061,103.039
			c0,56.907-9.429,103.039-21.061,103.039c-11.632,0-21.062-46.132-21.062-103.039C578.45,210.263,587.88,164.13,599.512,164.13z"/>
	</g>
	<polygon fill="#7A7C7F" points="710.798,930.746 706.593,927.943 694.107,919.619 677.626,908.631 680.658,922.966 
		710.798,948.165 753.392,983.776 745.274,1045.01 828.034,1097.976 839.981,1016.868 	"/>
	<polygon fill="#7A7C7F" points="505.893,919.619 493.407,927.943 489.202,930.746 360.019,1016.868 371.966,1097.976 
		454.726,1045.01 446.608,983.776 489.202,948.165 519.342,922.966 522.374,908.631 	"/>
	<ellipse fill="#23A1A7" cx="599.512" cy="267.169" rx="21.062" ry="103.039"/>
	<polygon fill="#E3DED0" points="828.034,1097.976 745.274,1045.01 753.392,983.776 710.798,948.165 680.658,922.966 
		650.567,897.808 650.567,979.677 650.567,999.551 669.308,1150 839.981,1105.623 	"/>
	<polygon fill="#E3DED0" points="519.342,922.966 489.202,948.165 446.608,983.776 454.726,1045.01 371.966,1097.976 
		360.019,1105.623 530.692,1150 549.433,999.551 549.433,979.677 549.433,897.808 	"/>
	<path fill="#D8D6D9" d="M599.647,51.496c-1.13-1.838-3.957-2.064-5.031-0.226c-11.703,19.986-18.798,37.823-22.926,50.346h52.635
		C616.495,80.217,604.651,59.751,599.647,51.496z"/>
</g>
</svg>
